<svg id="svg" xmlns="http://www.w3.org/2000/svg" xmlns:xlink="http://www.w3.org/1999/xlink" width="400" height="400" viewBox="0, 0, 400,400"><g id="svgg"><path id="path0" d="M198.732 157.887 L 26.864 158.001 26.608 160.500 C 26.233 164.175,26.542 241.475,26.933 241.867 C 27.369 242.303,373.831 242.302,374.267 241.867 C 374.450 241.683,374.647 222.738,374.705 199.767 L 374.811 158.000 373.855 158.000 C 373.330 158.000,372.382 157.949,371.750 157.887 C 371.118 157.825,293.259 157.825,198.732 157.887 M359.200 191.834 C 359.200 207.502,359.271 209.542,359.826 209.754 C 360.256 209.920,360.412 210.400,360.326 211.297 L 360.200 212.600 355.899 212.714 C 350.434 212.858,348.723 211.889,351.043 209.964 C 351.501 209.584,351.600 206.761,351.600 194.029 L 351.600 178.555 350.616 177.222 C 349.303 175.443,349.790 174.400,351.934 174.400 C 352.762 174.400,353.611 174.231,353.820 174.024 C 354.618 173.234,358.163 172.884,358.700 173.541 C 359.083 174.010,359.200 178.282,359.200 191.834 M206.624 173.768 C 207.345 174.295,207.400 174.877,207.404 181.952 C 207.408 190.102,207.555 190.742,209.204 189.800 C 209.752 189.488,210.650 189.025,211.200 188.773 C 211.750 188.520,212.519 188.149,212.909 187.948 C 215.105 186.814,220.400 187.709,220.400 189.213 C 220.400 189.396,220.754 189.659,221.188 189.796 C 222.471 190.203,222.795 192.489,222.798 201.142 L 222.800 209.285 223.839 210.519 C 225.391 212.364,224.523 212.800,219.297 212.800 C 213.712 212.800,212.758 212.181,214.761 209.859 C 215.295 209.239,215.400 207.943,215.400 201.986 L 215.400 194.855 214.285 193.690 C 212.716 192.050,210.679 191.461,210.052 192.465 C 209.686 193.051,209.415 193.129,208.831 192.817 C 207.673 192.197,207.556 193.002,207.562 201.535 C 207.567 207.839,207.683 209.467,208.184 210.231 C 209.650 212.470,209.012 212.800,203.216 212.800 C 198.249 212.800,197.443 212.416,198.798 210.693 C 200.071 209.075,200.050 178.197,198.776 177.792 C 197.914 177.519,196.885 175.782,197.324 175.343 C 197.549 175.117,198.941 174.691,203.000 173.603 C 204.852 173.107,205.778 173.149,206.624 173.768 M54.567 175.043 C 55.518 175.408,55.337 176.216,53.953 177.792 C 51.488 180.600,52.689 184.124,57.116 187.080 C 58.422 187.952,59.740 188.875,60.045 189.131 C 60.350 189.388,62.040 190.541,63.800 191.693 C 74.701 198.833,75.980 207.849,66.707 212.181 C 62.735 214.036,60.405 213.082,62.583 210.493 C 65.661 206.836,63.813 202.550,57.506 198.719 C 54.452 196.864,50.552 194.358,49.238 193.407 C 41.347 187.690,42.165 178.491,50.836 175.456 C 52.788 174.773,53.622 174.680,54.567 175.043 M67.176 175.712 C 71.063 176.593,71.726 177.546,71.376 181.749 C 70.983 186.485,69.942 186.947,67.991 183.254 C 66.345 180.138,63.015 177.271,60.229 176.572 C 59.659 176.428,59.081 176.131,58.945 175.911 C 58.182 174.676,62.182 174.579,67.176 175.712 M242.549 175.313 C 243.326 175.882,242.140 178.000,241.045 178.000 C 239.397 178.000,239.182 180.173,239.209 196.497 C 239.231 208.881,239.128 212.199,238.718 212.459 C 238.433 212.640,236.107 212.791,233.549 212.794 C 227.901 212.801,227.115 212.363,229.261 210.403 L 230.600 209.181 230.719 194.709 C 230.849 178.931,230.765 178.259,228.525 177.239 C 227.428 176.739,227.322 175.801,228.300 175.232 C 229.372 174.608,241.680 174.678,242.549 175.313 M187.796 180.868 C 188.832 181.683,188.885 181.875,188.663 183.998 C 188.360 186.897,189.011 187.973,191.123 188.064 L 192.600 188.128 191.202 188.297 C 188.931 188.571,188.926 188.588,188.713 197.094 C 188.441 207.926,189.137 209.736,193.037 208.333 C 194.687 207.740,194.810 207.748,195.487 208.498 C 197.019 210.196,190.736 213.965,187.171 213.487 C 181.695 212.752,181.111 211.406,180.895 199.025 C 180.764 191.539,180.603 189.272,180.171 188.822 C 179.697 188.329,179.707 188.145,180.236 187.560 C 180.633 187.122,180.896 185.929,180.966 184.253 C 181.083 181.460,181.532 180.550,182.929 180.278 C 185.169 179.843,186.733 180.032,187.796 180.868 M318.413 187.300 C 321.737 189.546,319.866 193.970,316.026 192.945 C 314.021 192.410,314.000 192.433,314.000 195.254 C 314.000 199.026,312.224 201.562,308.259 203.452 C 305.467 204.784,303.857 203.036,305.776 200.756 C 307.521 198.682,307.462 192.872,305.671 190.400 C 304.405 188.654,304.330 188.033,305.353 187.776 C 306.414 187.510,310.400 188.697,310.400 189.280 C 310.400 189.493,311.075 189.137,311.900 188.490 C 313.115 187.536,314.989 186.759,316.841 186.441 C 316.973 186.419,317.681 186.805,318.413 187.300 M96.611 188.005 C 100.139 189.612,100.400 190.467,100.400 200.431 C 100.400 208.417,100.458 209.128,101.160 209.764 C 103.518 211.898,102.239 212.800,96.859 212.800 C 91.470 212.800,90.327 212.070,92.300 209.890 C 92.912 209.213,93.000 208.209,93.000 201.874 L 93.000 194.632 91.947 193.479 C 91.014 192.457,90.605 192.318,88.347 192.263 L 85.800 192.200 85.800 200.659 C 85.800 207.832,85.897 209.230,86.439 209.859 C 88.401 212.134,87.383 212.800,81.948 212.800 C 77.053 212.800,75.682 211.902,77.500 209.887 C 78.489 208.791,78.434 194.475,77.436 193.081 C 77.089 192.596,76.522 191.810,76.176 191.333 C 75.336 190.177,77.713 188.400,80.098 188.400 C 80.930 188.400,81.941 188.194,82.345 187.941 C 83.435 187.261,85.143 187.834,85.430 188.977 C 85.771 190.334,86.484 190.470,88.048 189.474 C 91.719 187.136,93.887 186.764,96.611 188.005 M110.921 187.627 C 114.909 188.734,115.579 190.893,115.592 202.679 C 115.600 209.477,115.612 209.572,116.610 210.649 C 117.330 211.426,117.497 211.863,117.191 212.170 C 116.577 212.785,107.891 212.984,106.813 212.407 L 105.953 211.946 106.873 210.473 C 107.829 208.942,108.253 197.320,107.463 194.274 C 107.098 192.863,104.812 191.752,103.605 192.398 C 102.965 192.740,102.709 192.633,102.158 191.792 C 100.520 189.291,106.566 186.418,110.921 187.627 M131.600 188.069 C 131.600 188.281,131.163 189.026,130.629 189.727 C 127.734 193.523,127.627 207.832,130.471 210.876 C 134.397 215.079,127.080 213.572,122.951 209.327 C 116.975 203.183,120.192 189.877,128.060 188.195 C 128.797 188.037,129.659 187.768,129.976 187.596 C 130.645 187.233,131.600 187.511,131.600 188.069 M301.563 187.756 C 301.922 188.187,301.792 188.746,300.984 190.256 C 299.646 192.755,299.613 199.938,300.934 200.903 C 302.290 201.893,301.684 203.793,300.000 203.835 C 297.749 203.891,297.606 203.950,297.124 205.007 C 296.332 206.745,297.460 207.173,302.874 207.187 C 313.362 207.216,316.878 209.362,316.187 215.315 C 315.838 218.322,314.449 221.460,313.009 222.494 C 311.473 223.597,310.191 221.604,311.362 219.933 C 312.279 218.624,312.163 218.006,310.722 216.519 L 309.443 215.200 303.222 215.191 C 295.705 215.181,294.301 214.739,292.611 211.855 C 291.091 209.261,291.447 207.141,293.842 204.532 C 295.759 202.444,295.921 201.964,294.971 201.176 C 291.556 198.341,292.446 191.052,296.442 189.138 C 300.754 187.071,300.951 187.018,301.563 187.756 M337.416 187.900 C 341.982 189.510,343.191 192.101,343.196 200.286 C 343.201 207.613,343.675 209.200,345.860 209.200 C 348.990 209.200,348.015 211.712,344.400 212.965 C 338.780 214.912,335.892 212.613,335.766 206.094 C 335.721 203.732,335.665 201.665,335.642 201.500 C 335.552 200.858,333.714 201.249,332.297 202.211 C 328.644 204.694,328.909 208.552,332.805 209.601 C 335.491 210.325,334.868 211.522,330.935 213.192 L 328.870 214.068 326.421 213.176 C 323.080 211.958,322.000 210.625,322.000 207.724 C 322.000 202.993,323.779 201.634,332.800 199.477 C 337.335 198.392,336.779 191.822,331.945 189.372 C 329.876 188.324,329.783 187.814,331.600 187.488 C 333.745 187.104,335.512 187.229,337.416 187.900 M137.600 188.114 C 143.398 190.192,147.400 196.830,146.061 202.148 C 145.832 203.057,145.532 204.340,145.394 205.000 C 144.618 208.712,139.353 213.200,135.774 213.200 C 134.515 213.200,134.539 212.577,135.900 209.956 C 138.104 205.713,137.616 191.987,135.183 189.785 C 133.349 188.125,134.811 187.114,137.600 188.114 M161.323 187.856 C 161.463 187.997,161.020 188.818,160.337 189.680 C 157.768 192.923,157.549 206.844,160.011 210.337 C 162.036 213.209,160.511 214.132,156.777 212.296 C 148.761 208.355,147.032 197.368,153.418 190.943 C 155.768 188.578,160.282 186.815,161.323 187.856 M167.105 187.931 C 173.005 190.747,174.452 192.346,175.601 197.320 C 176.663 201.913,174.512 208.929,171.522 210.628 C 166.986 213.206,164.000 214.179,164.000 213.078 C 164.000 212.519,165.729 210.015,166.402 209.599 C 167.826 208.719,167.112 191.912,165.587 190.387 C 163.803 188.603,164.877 186.868,167.105 187.931 M274.169 187.844 C 274.698 188.046,274.569 188.408,273.401 189.999 C 272.629 191.050,271.885 192.474,271.747 193.163 C 271.609 193.853,271.340 194.514,271.148 194.632 C 270.593 194.975,270.770 197.726,271.400 198.559 C 271.903 199.224,271.894 199.457,271.322 200.424 C 270.698 201.481,270.717 201.624,271.757 203.665 C 274.062 208.187,279.146 209.846,282.629 207.211 C 284.682 205.658,286.400 205.759,286.400 207.433 C 286.400 207.905,283.606 211.005,282.322 211.958 C 281.440 212.613,277.424 213.568,275.477 213.586 C 265.884 213.676,259.839 203.083,264.300 194.000 C 265.201 192.165,267.592 189.600,268.401 189.600 C 268.753 189.600,269.241 189.399,269.486 189.154 C 270.740 187.900,272.809 187.321,274.169 187.844 M280.200 188.000 C 280.336 188.220,280.816 188.400,281.266 188.400 C 283.770 188.400,287.264 193.383,287.350 197.076 C 287.415 199.903,286.794 200.402,283.224 200.394 C 279.745 200.386,279.669 200.312,279.740 197.000 C 279.801 194.174,279.684 193.807,277.330 189.451 C 276.812 188.492,276.800 188.246,277.255 187.958 C 278.003 187.484,279.898 187.511,280.200 188.000 M329.197 191.259 C 330.826 192.964,330.870 195.132,329.304 196.584 C 326.125 199.532,322.400 195.283,324.784 191.427 C 325.952 189.537,327.494 189.478,329.197 191.259 M47.800 203.245 C 49.558 206.775,51.826 209.193,54.876 210.791 C 58.220 212.542,57.793 213.320,53.671 212.986 C 51.762 212.831,50.020 212.562,49.800 212.388 C 49.580 212.214,48.752 211.951,47.960 211.803 C 44.963 211.243,44.400 210.174,44.400 205.050 C 44.400 202.566,44.520 200.413,44.667 200.267 C 45.468 199.466,46.322 200.278,47.800 203.245 M258.449 202.700 C 258.654 205.593,258.333 211.799,257.956 212.253 C 257.268 213.082,244.300 213.043,243.608 212.210 C 243.038 211.522,243.454 211.309,247.600 210.161 C 249.030 209.765,250.560 209.126,251.000 208.740 C 251.440 208.355,252.349 207.595,253.020 207.051 C 253.691 206.508,254.589 205.374,255.017 204.532 C 256.177 202.244,256.412 202.000,257.449 202.000 C 258.069 202.000,258.417 202.243,258.449 202.700 M293.922 217.158 C 294.156 221.191,298.525 224.188,303.879 223.990 C 308.618 223.815,308.962 224.042,306.297 225.578 C 303.706 227.072,295.817 227.283,293.223 225.928 C 289.799 224.139,288.868 220.926,290.728 217.321 C 292.351 214.176,293.744 214.105,293.922 217.158 " stroke="none" fill="#93ec93" fill-rule="evenodd"></path><path id="path1" d="M0.000 200.000 L 0.000 400.000 200.000 400.000 L 400.000 400.000 400.000 200.000 L 400.000 0.000 200.000 0.000 L 0.000 0.000 0.000 200.000 M375.244 199.930 C 375.260 223.322,375.194 242.539,375.098 242.635 C 374.772 242.961,25.850 242.810,25.523 242.483 C 25.158 242.118,25.048 158.169,25.413 157.579 C 25.561 157.340,90.392 157.236,200.432 157.300 L 375.216 157.400 375.244 199.930 M354.800 175.025 C 354.030 175.316,352.998 175.565,352.506 175.577 L 351.612 175.600 352.404 176.900 C 353.254 178.294,353.639 205.824,352.856 209.200 C 352.364 211.323,352.611 211.600,355.001 211.600 C 358.736 211.600,358.400 213.463,358.400 192.757 L 358.400 174.400 357.300 174.448 C 356.695 174.474,355.570 174.734,354.800 175.025 M201.961 175.337 C 199.562 175.833,199.562 175.833,200.667 178.243 C 201.280 179.580,201.237 207.604,200.618 210.241 L 200.327 211.482 203.014 211.757 C 206.427 212.107,206.130 213.012,205.984 202.712 C 205.915 197.810,205.845 189.570,205.829 184.400 C 205.796 173.663,206.141 174.471,201.961 175.337 M231.341 176.651 C 231.009 176.787,231.045 177.168,231.470 178.021 C 232.292 179.667,232.104 209.112,231.266 210.122 C 230.359 211.213,231.127 211.600,234.201 211.600 C 238.677 211.600,238.400 212.746,238.400 194.242 C 238.400 180.104,238.463 178.593,239.084 177.907 C 239.674 177.255,239.688 177.100,239.184 176.782 C 238.595 176.409,232.192 176.302,231.341 176.651 M48.937 178.036 C 45.814 180.228,43.943 185.659,45.785 187.187 C 46.106 187.454,46.485 188.038,46.627 188.486 C 47.092 189.950,50.372 192.428,59.197 197.981 C 63.660 200.789,65.200 203.080,65.200 206.913 C 65.200 208.585,65.020 210.064,64.800 210.200 C 63.881 210.768,64.455 211.296,65.761 211.084 C 73.259 209.867,72.464 198.178,64.593 193.902 C 59.779 191.287,52.772 185.833,51.767 183.920 C 50.979 182.419,51.019 178.238,51.829 177.429 C 52.977 176.280,50.782 176.741,48.937 178.036 M65.000 177.559 C 66.677 178.616,68.733 181.007,69.082 182.307 C 69.374 183.396,69.376 183.395,69.589 182.000 C 70.137 178.399,68.868 176.798,65.468 176.801 L 63.800 176.803 65.000 177.559 M182.609 183.081 C 182.329 184.559,182.302 198.701,182.566 205.659 C 182.783 211.406,186.920 214.051,191.301 211.245 L 192.600 210.413 191.361 210.407 C 190.005 210.399,188.946 209.637,187.767 207.817 C 187.053 206.716,187.000 205.777,187.000 194.217 L 187.000 181.800 184.948 181.681 L 182.896 181.562 182.609 183.081 M314.588 188.420 C 314.228 189.002,315.452 191.457,316.254 191.766 C 318.202 192.513,319.475 189.403,317.626 188.414 C 316.626 187.879,314.920 187.882,314.588 188.420 M91.464 189.083 C 89.856 189.497,89.049 190.800,90.400 190.800 C 91.610 190.800,92.646 191.567,93.742 193.273 C 94.228 194.032,94.322 195.787,94.259 202.932 C 94.216 207.735,94.291 211.732,94.425 211.815 C 94.559 211.898,95.823 211.836,97.234 211.676 C 99.878 211.378,100.574 210.255,99.167 208.560 C 98.952 208.302,98.865 205.066,98.961 200.955 C 99.135 193.512,98.779 190.652,97.624 190.220 C 97.281 190.092,96.550 189.723,96.000 189.400 C 95.035 188.832,92.989 188.689,91.464 189.083 M105.800 189.427 C 103.802 190.464,103.760 190.752,105.567 191.041 C 108.855 191.567,109.261 192.834,109.087 202.045 C 109.007 206.310,108.864 210.158,108.770 210.596 C 108.569 211.534,112.937 212.301,113.915 211.499 C 114.600 210.938,114.363 195.521,113.624 192.549 C 112.832 189.369,108.921 187.809,105.800 189.427 M213.800 189.161 C 213.360 189.316,212.370 189.741,211.600 190.105 L 210.200 190.769 211.474 190.784 C 215.892 190.839,216.800 192.693,216.800 201.667 C 216.800 205.561,216.636 209.180,216.435 209.707 C 215.782 211.425,218.133 212.197,221.349 211.319 C 222.850 210.910,221.757 192.092,220.156 190.763 C 219.850 190.510,219.600 190.078,219.600 189.803 C 219.600 188.981,215.578 188.536,213.800 189.161 M335.277 189.108 C 334.998 189.201,335.220 189.851,335.862 190.822 C 336.896 192.384,336.897 192.399,336.845 200.528 L 336.793 208.670 337.999 210.335 C 339.342 212.188,340.867 212.491,344.054 211.537 C 345.774 211.021,346.107 210.400,344.662 210.400 C 342.562 210.400,342.220 209.316,341.971 201.859 C 341.641 191.987,339.407 187.731,335.277 189.108 M80.000 189.918 C 79.010 190.280,78.152 190.600,78.093 190.629 C 78.034 190.657,78.258 191.203,78.590 191.840 C 79.079 192.777,79.196 194.777,79.198 202.244 L 79.200 211.489 81.700 211.720 C 84.723 212.000,85.610 211.484,84.745 209.947 C 84.357 209.256,84.181 206.568,84.095 200.000 C 83.937 187.974,84.115 188.412,80.000 189.918 M137.000 189.506 C 138.776 190.811,139.657 205.451,138.173 209.004 C 136.961 211.904,139.798 211.385,141.843 208.333 C 142.259 207.711,142.735 207.202,142.900 207.201 C 143.065 207.201,143.200 206.972,143.200 206.694 C 143.200 206.416,143.573 205.492,144.030 204.640 C 146.402 200.214,143.617 192.557,138.703 189.996 C 137.201 189.213,136.215 188.930,137.000 189.506 M279.525 190.016 C 280.006 190.464,280.400 191.154,280.400 191.549 C 280.400 191.944,280.535 192.400,280.700 192.564 C 280.865 192.727,281.180 194.152,281.400 195.731 L 281.800 198.600 283.800 198.559 C 288.656 198.458,284.178 189.200,279.274 189.200 C 278.790 189.200,278.846 189.383,279.525 190.016 M307.200 189.591 C 307.674 189.890,307.842 191.224,308.000 195.930 L 308.200 201.890 309.731 200.920 C 312.997 198.850,313.332 190.407,310.149 190.401 C 309.681 190.401,309.074 190.130,308.800 189.800 C 308.526 189.470,307.919 189.203,307.451 189.206 C 306.759 189.211,306.712 189.283,307.200 189.591 M167.800 189.999 C 167.687 190.183,167.804 191.564,168.061 193.067 C 168.738 197.026,168.934 203.485,168.449 205.800 C 167.476 210.435,167.483 211.290,168.490 210.978 C 168.991 210.822,169.544 210.449,169.720 210.148 C 169.896 209.846,170.259 209.600,170.526 209.600 C 170.994 209.600,173.165 206.255,173.771 204.600 C 174.567 202.427,174.749 199.575,174.179 198.212 C 173.861 197.449,173.600 196.394,173.600 195.867 C 173.600 194.013,168.505 188.859,167.800 189.999 M270.400 189.976 C 270.400 190.209,270.144 190.400,269.831 190.400 C 266.514 190.400,263.060 200.130,264.827 204.494 C 267.827 211.902,275.652 214.194,282.800 209.758 C 283.741 209.174,283.618 209.151,280.697 209.364 C 275.005 209.779,272.571 208.650,270.440 204.606 C 269.261 202.368,269.236 195.010,270.400 192.600 C 271.281 190.777,271.370 190.152,270.800 189.800 C 270.580 189.664,270.400 189.743,270.400 189.976 M125.191 191.500 C 121.558 194.755,120.231 201.939,122.500 206.070 C 124.053 208.897,124.237 209.157,125.263 209.963 C 127.735 211.908,129.194 211.239,127.800 208.800 C 126.955 207.322,126.957 193.475,127.802 191.854 C 129.050 189.463,127.673 189.276,125.191 191.500 M156.400 190.298 C 155.542 190.582,152.800 193.274,152.800 193.832 C 152.800 194.091,152.556 194.505,152.257 194.753 C 151.818 195.117,151.109 198.810,151.134 200.600 C 151.188 204.430,153.080 208.396,155.766 210.307 C 157.164 211.302,158.825 211.194,157.970 210.164 C 157.133 209.156,156.638 200.730,157.105 195.462 C 157.544 190.519,157.465 189.946,156.400 190.298 M297.195 190.258 C 296.148 190.542,294.000 194.099,294.000 195.547 C 294.000 198.624,298.661 203.843,299.785 202.025 C 299.912 201.818,299.698 201.471,299.308 201.252 C 298.685 200.903,298.600 200.206,298.600 195.428 C 298.600 192.045,298.449 190.017,298.200 190.046 C 297.980 190.072,297.528 190.167,297.195 190.258 M325.862 192.331 C 324.994 193.291,325.022 194.515,325.931 195.338 C 327.954 197.168,329.859 194.578,327.969 192.567 C 326.879 191.407,326.715 191.389,325.862 192.331 M326.059 203.302 C 323.160 204.786,322.207 207.279,323.700 209.473 C 325.357 211.909,329.044 212.753,331.720 211.309 L 333.000 210.618 331.531 210.409 C 330.079 210.202,328.571 208.847,328.389 207.584 C 328.176 206.101,328.454 204.403,329.000 203.857 C 330.607 202.250,328.785 201.907,326.059 203.302 M45.628 206.100 C 45.604 209.115,45.693 209.600,46.269 209.600 C 46.636 209.600,47.221 209.850,47.569 210.156 C 48.208 210.720,51.600 211.464,51.600 211.040 C 51.600 210.913,50.880 210.133,50.001 209.305 C 49.121 208.477,48.401 207.661,48.401 207.492 C 48.400 207.323,47.905 206.423,47.300 205.492 C 46.695 204.561,46.078 203.530,45.928 203.200 C 45.779 202.870,45.644 204.175,45.628 206.100 M294.179 206.700 C 294.049 207.305,293.805 208.154,293.637 208.586 C 292.296 212.034,295.523 213.700,304.084 213.981 L 310.769 214.200 312.509 215.909 C 314.583 217.946,314.800 217.821,314.800 214.584 C 314.800 212.325,314.679 211.968,313.461 210.638 L 312.121 209.176 304.961 208.851 C 297.248 208.501,295.796 208.167,295.203 206.607 C 294.711 205.315,294.472 205.336,294.179 206.700 M255.056 207.300 C 253.577 208.704,250.995 210.400,250.339 210.400 C 248.356 210.400,250.816 211.424,253.032 211.521 C 256.441 211.669,257.200 211.020,257.200 207.956 C 257.200 205.653,256.892 205.559,255.056 207.300 M291.528 218.900 C 291.322 222.622,292.361 224.800,294.342 224.800 C 294.726 224.800,295.231 224.991,295.464 225.224 C 295.698 225.458,296.758 225.593,297.821 225.524 L 299.754 225.400 298.177 224.600 C 295.969 223.480,292.830 220.252,292.540 218.802 C 292.222 217.209,291.618 217.268,291.528 218.900 " stroke="none" fill="#fbfbfb" fill-rule="evenodd"></path><path id="path2" d="M26.902 157.686 L 25.800 157.971 25.895 199.886 C 25.984 238.837,26.039 241.835,26.672 242.300 C 27.214 242.698,62.632 242.800,200.600 242.800 C 338.568 242.800,373.986 242.698,374.527 242.300 C 375.160 241.834,375.199 238.931,375.103 199.800 L 375.000 157.800 373.497 157.758 L 371.993 157.716 373.402 157.883 L 374.811 158.049 374.705 199.791 C 374.647 222.749,374.450 241.683,374.267 241.867 C 373.831 242.302,27.369 242.303,26.933 241.867 C 26.542 241.475,26.233 164.175,26.608 160.500 L 26.864 158.001 198.732 157.900 L 370.600 157.800 199.302 157.600 C 105.088 157.490,27.508 157.528,26.902 157.686 M356.200 173.289 C 355.100 173.486,354.029 173.817,353.820 174.024 C 353.611 174.231,352.762 174.400,351.934 174.400 C 349.790 174.400,349.303 175.443,350.616 177.222 L 351.600 178.555 351.600 194.029 C 351.600 206.761,351.501 209.584,351.043 209.964 C 348.723 211.889,350.434 212.858,355.899 212.714 L 360.200 212.600 360.326 211.297 C 360.412 210.400,360.256 209.920,359.826 209.754 C 359.271 209.542,359.200 207.502,359.200 191.834 C 359.200 171.758,359.356 172.722,356.200 173.289 M203.000 173.603 C 198.941 174.691,197.549 175.117,197.324 175.343 C 196.885 175.782,197.914 177.519,198.776 177.792 C 200.050 178.197,200.071 209.075,198.798 210.693 C 197.443 212.416,198.249 212.800,203.216 212.800 C 209.012 212.800,209.650 212.470,208.184 210.231 C 207.683 209.467,207.567 207.839,207.562 201.535 C 207.556 193.002,207.673 192.197,208.831 192.817 C 209.415 193.129,209.686 193.051,210.052 192.465 C 210.679 191.461,212.716 192.050,214.285 193.690 L 215.400 194.855 215.400 201.986 C 215.400 207.943,215.295 209.239,214.761 209.859 C 212.758 212.181,213.712 212.800,219.297 212.800 C 224.523 212.800,225.391 212.364,223.839 210.519 L 222.800 209.285 222.798 201.142 C 222.795 192.489,222.471 190.203,221.188 189.796 C 220.754 189.659,220.400 189.396,220.400 189.213 C 220.400 187.709,215.105 186.814,212.909 187.948 C 212.519 188.149,211.750 188.520,211.200 188.773 C 210.650 189.025,209.752 189.488,209.204 189.800 C 207.555 190.742,207.408 190.102,207.404 181.952 C 207.399 172.827,207.213 172.475,203.000 173.603 M206.400 191.880 C 206.551 205.270,206.721 209.682,207.100 210.060 C 208.712 211.671,206.909 212.515,202.606 212.166 L 199.234 211.893 199.817 210.498 C 200.293 209.358,200.400 206.302,200.400 193.829 L 200.400 178.555 199.413 177.218 C 198.176 175.540,198.302 175.354,200.898 175.030 C 202.058 174.885,203.275 174.592,203.603 174.380 C 203.932 174.167,204.650 174.039,205.200 174.096 L 206.200 174.200 206.400 191.880 M358.542 174.592 C 358.667 174.918,358.779 182.967,358.792 192.479 C 358.806 203.238,358.963 209.923,359.207 210.167 C 360.562 211.522,358.915 212.393,355.000 212.390 C 352.091 212.388,350.426 211.173,352.000 210.200 C 352.256 210.042,352.400 204.206,352.400 194.007 L 352.400 178.061 351.390 176.861 C 350.223 175.474,350.480 175.155,352.930 174.947 C 353.821 174.872,354.732 174.628,354.955 174.405 C 355.592 173.768,358.279 173.908,358.542 174.592 M50.836 175.456 C 42.165 178.491,41.347 187.690,49.238 193.407 C 50.552 194.358,54.452 196.864,57.506 198.719 C 63.813 202.550,65.661 206.836,62.583 210.493 C 60.405 213.082,62.735 214.036,66.707 212.181 C 75.980 207.849,74.701 198.833,63.800 191.693 C 62.040 190.541,60.350 189.388,60.045 189.131 C 59.740 188.875,58.422 187.952,57.116 187.080 C 52.689 184.124,51.488 180.600,53.953 177.792 C 56.330 175.085,54.918 174.027,50.836 175.456 M59.249 175.138 C 58.521 175.630,58.944 176.249,60.229 176.572 C 63.015 177.271,66.345 180.138,67.991 183.254 C 69.942 186.947,70.983 186.485,71.376 181.749 C 71.726 177.546,71.063 176.593,67.176 175.712 C 63.811 174.949,59.943 174.669,59.249 175.138 M228.300 175.232 C 227.322 175.801,227.428 176.739,228.525 177.239 C 230.765 178.259,230.849 178.931,230.719 194.709 L 230.600 209.181 229.261 210.403 C 227.115 212.363,227.901 212.801,233.549 212.794 C 236.107 212.791,238.433 212.640,238.718 212.459 C 239.128 212.199,239.231 208.881,239.209 196.497 C 239.182 180.173,239.397 178.000,241.045 178.000 C 242.140 178.000,243.326 175.882,242.549 175.313 C 241.680 174.678,229.372 174.608,228.300 175.232 M53.438 176.461 C 53.594 176.714,53.454 177.119,53.126 177.361 C 50.743 179.118,51.240 182.838,54.252 185.781 C 55.709 187.204,60.089 190.400,60.582 190.400 C 60.985 190.400,66.956 194.874,68.534 196.357 C 73.911 201.414,72.478 209.442,65.793 211.710 C 63.194 212.592,62.533 212.226,63.778 210.593 C 66.413 207.138,64.416 202.007,59.169 198.750 C 46.179 190.688,43.548 187.693,44.872 182.477 C 45.796 178.834,52.147 174.373,53.438 176.461 M68.665 177.000 C 70.392 177.896,71.094 181.699,69.847 183.403 C 69.331 184.109,69.227 184.027,68.289 182.180 C 67.389 180.409,66.183 179.131,63.839 177.463 C 61.750 175.977,65.922 175.577,68.665 177.000 M240.800 176.427 C 240.800 176.661,240.360 177.431,239.822 178.136 L 238.843 179.419 238.722 195.477 C 238.585 213.549,238.885 212.166,235.067 212.302 C 229.773 212.490,228.913 212.002,230.761 209.859 C 231.904 208.532,231.942 180.445,230.802 178.514 C 229.412 176.157,229.711 176.000,235.587 176.000 C 239.013 176.000,240.800 176.146,240.800 176.427 M182.929 180.278 C 181.532 180.550,181.083 181.460,180.966 184.253 C 180.896 185.929,180.633 187.122,180.236 187.560 C 179.707 188.145,179.697 188.329,180.171 188.822 C 180.603 189.272,180.764 191.539,180.895 199.025 C 181.111 211.406,181.695 212.752,187.171 213.487 C 190.736 213.965,197.019 210.196,195.487 208.498 C 194.810 207.748,194.687 207.740,193.037 208.333 C 189.137 209.736,188.441 207.926,188.713 197.094 C 188.926 188.588,188.931 188.571,191.202 188.297 L 192.600 188.128 191.123 188.064 C 189.011 187.973,188.360 186.897,188.663 183.998 C 189.014 180.639,187.182 179.451,182.929 180.278 M186.542 181.178 C 187.491 181.539,188.037 184.338,187.950 188.400 C 187.943 188.730,187.853 192.600,187.750 197.000 C 187.507 207.400,188.207 209.489,192.035 209.790 C 195.411 210.056,191.767 212.555,188.000 212.558 C 182.373 212.561,181.854 211.397,181.600 198.200 C 181.305 182.864,181.445 181.724,183.680 181.195 C 185.522 180.758,185.440 180.759,186.542 181.178 M315.000 186.898 C 314.120 187.126,312.725 187.843,311.900 188.490 C 311.075 189.137,310.400 189.493,310.400 189.280 C 310.400 188.697,306.414 187.510,305.353 187.776 C 304.330 188.033,304.405 188.654,305.671 190.400 C 307.462 192.872,307.521 198.682,305.776 200.756 C 303.857 203.036,305.467 204.784,308.259 203.452 C 312.224 201.562,314.000 199.026,314.000 195.254 C 314.000 192.433,314.021 192.410,316.026 192.945 C 319.866 193.970,321.737 189.546,318.413 187.300 C 317.681 186.805,316.973 186.419,316.841 186.441 C 316.708 186.464,315.880 186.669,315.000 186.898 M91.000 187.929 C 90.120 188.305,88.791 189.000,88.048 189.474 C 86.484 190.470,85.771 190.334,85.430 188.977 C 85.143 187.834,83.435 187.261,82.345 187.941 C 81.941 188.194,80.930 188.400,80.098 188.400 C 77.713 188.400,75.336 190.177,76.176 191.333 C 76.522 191.810,77.089 192.596,77.436 193.081 C 78.434 194.475,78.489 208.791,77.500 209.887 C 75.682 211.902,77.053 212.800,81.948 212.800 C 87.383 212.800,88.401 212.134,86.439 209.859 C 85.897 209.230,85.800 207.832,85.800 200.659 L 85.800 192.200 88.347 192.263 C 90.605 192.318,91.014 192.457,91.947 193.479 L 93.000 194.632 93.000 201.874 C 93.000 208.209,92.912 209.213,92.300 209.890 C 90.327 212.070,91.470 212.800,96.859 212.800 C 102.239 212.800,103.518 211.898,101.160 209.764 C 100.458 209.128,100.400 208.417,100.400 200.431 C 100.400 191.843,100.393 191.776,99.389 190.298 C 97.540 187.577,94.097 186.605,91.000 187.929 M106.600 187.590 C 102.886 188.545,101.123 190.213,102.158 191.792 C 102.709 192.633,102.965 192.740,103.605 192.398 C 104.812 191.752,107.098 192.863,107.463 194.274 C 108.253 197.320,107.829 208.942,106.873 210.473 L 105.953 211.946 106.813 212.407 C 107.891 212.984,116.577 212.785,117.191 212.170 C 117.497 211.863,117.330 211.426,116.610 210.649 C 115.612 209.572,115.600 209.477,115.592 202.679 C 115.576 188.977,113.667 185.773,106.600 187.590 M129.976 187.596 C 129.659 187.768,128.797 188.037,128.060 188.195 C 120.192 189.877,116.975 203.183,122.951 209.327 C 127.080 213.572,134.397 215.079,130.471 210.876 C 127.627 207.832,127.734 193.523,130.629 189.727 C 131.981 187.954,131.601 186.714,129.976 187.596 M299.200 187.869 C 295.678 189.424,295.020 189.890,293.950 191.594 C 292.109 194.524,292.609 199.216,294.971 201.176 C 295.921 201.964,295.759 202.444,293.842 204.532 C 291.447 207.141,291.091 209.261,292.611 211.855 C 294.301 214.739,295.705 215.181,303.222 215.191 L 309.443 215.200 310.722 216.519 C 312.163 218.006,312.279 218.624,311.362 219.933 C 310.191 221.604,311.473 223.597,313.009 222.494 C 314.449 221.460,315.838 218.322,316.187 215.315 C 316.878 209.362,313.362 207.216,302.874 207.187 C 297.460 207.173,296.332 206.745,297.124 205.007 C 297.606 203.950,297.749 203.891,300.000 203.835 C 301.684 203.793,302.290 201.893,300.934 200.903 C 299.613 199.938,299.646 192.755,300.984 190.256 C 302.457 187.503,301.855 186.697,299.200 187.869 M331.600 187.488 C 329.783 187.814,329.876 188.324,331.945 189.372 C 336.779 191.822,337.335 198.392,332.800 199.477 C 323.779 201.634,322.000 202.993,322.000 207.724 C 322.000 210.625,323.080 211.958,326.421 213.176 L 328.870 214.068 330.935 213.192 C 334.868 211.522,335.491 210.325,332.805 209.601 C 328.909 208.552,328.644 204.694,332.297 202.211 C 333.714 201.249,335.552 200.858,335.642 201.500 C 335.665 201.665,335.721 203.732,335.766 206.094 C 335.892 212.613,338.780 214.912,344.400 212.965 C 348.015 211.712,348.990 209.200,345.860 209.200 C 343.675 209.200,343.201 207.613,343.196 200.286 C 343.190 190.008,339.606 186.052,331.600 187.488 M134.900 187.865 C 134.168 188.160,134.289 188.975,135.183 189.785 C 137.616 191.987,138.104 205.713,135.900 209.956 C 134.539 212.577,134.515 213.200,135.774 213.200 C 139.353 213.200,144.618 208.712,145.394 205.000 C 145.532 204.340,145.832 203.057,146.061 202.148 C 146.837 199.068,145.150 193.622,142.724 191.372 C 139.858 188.714,136.512 187.215,134.900 187.865 M157.431 188.284 C 147.399 191.347,146.960 207.470,156.777 212.296 C 160.511 214.132,162.036 213.209,160.011 210.337 C 157.549 206.844,157.768 192.923,160.337 189.680 C 162.104 187.448,161.353 187.087,157.431 188.284 M164.942 187.851 C 164.361 188.089,164.726 189.526,165.587 190.387 C 167.112 191.912,167.826 208.719,166.402 209.599 C 165.729 210.015,164.000 212.519,164.000 213.078 C 164.000 214.179,166.986 213.206,171.522 210.628 C 178.255 206.802,176.988 193.036,169.548 189.171 C 166.267 187.467,166.039 187.401,164.942 187.851 M270.866 188.193 C 270.353 188.476,269.732 188.908,269.486 189.154 C 269.241 189.399,268.753 189.600,268.401 189.600 C 267.592 189.600,265.201 192.165,264.300 194.000 C 259.839 203.083,265.884 213.676,275.477 213.586 C 277.424 213.568,281.440 212.613,282.322 211.958 C 283.606 211.005,286.400 207.905,286.400 207.433 C 286.400 205.759,284.682 205.658,282.629 207.211 C 279.146 209.846,274.062 208.187,271.757 203.665 C 270.717 201.624,270.698 201.481,271.322 200.424 C 271.894 199.457,271.903 199.224,271.400 198.559 C 270.770 197.726,270.593 194.975,271.148 194.632 C 271.340 194.514,271.609 193.853,271.747 193.163 C 271.885 192.474,272.629 191.050,273.401 189.999 C 275.116 187.662,273.683 186.641,270.866 188.193 M277.255 187.958 C 276.800 188.246,276.812 188.492,277.330 189.451 C 279.684 193.807,279.801 194.174,279.740 197.000 C 279.669 200.312,279.745 200.386,283.224 200.394 C 286.794 200.402,287.415 199.903,287.350 197.076 C 287.264 193.383,283.770 188.400,281.266 188.400 C 280.816 188.400,280.336 188.220,280.200 188.000 C 279.898 187.511,278.003 187.484,277.255 187.958 M318.311 188.223 C 320.097 189.474,319.202 192.400,317.033 192.400 C 314.843 192.400,312.588 188.898,314.140 187.906 C 314.945 187.392,317.390 187.578,318.311 188.223 M96.882 189.043 C 99.222 190.252,99.381 190.935,99.600 200.661 C 99.743 207.018,99.943 209.704,100.300 210.061 C 100.575 210.335,100.800 210.884,100.800 211.280 C 100.800 211.676,100.575 212.019,100.300 212.043 C 93.480 212.627,91.688 212.093,93.313 209.960 C 93.663 209.501,93.780 207.167,93.729 201.683 C 93.644 192.589,93.185 191.330,90.017 191.506 C 88.454 191.593,87.905 190.790,88.960 189.960 C 91.369 188.065,94.330 187.723,96.882 189.043 M112.788 189.691 C 114.347 190.894,114.763 193.388,114.782 201.640 C 114.793 206.035,114.983 209.605,115.246 210.361 C 115.837 212.056,115.626 212.191,112.267 212.255 C 107.819 212.340,106.508 211.650,108.100 210.061 C 108.452 209.709,108.636 207.473,108.720 202.481 C 108.874 193.469,108.377 192.034,104.900 191.444 C 102.468 191.031,102.349 190.776,104.028 189.580 C 106.407 187.886,110.518 187.938,112.788 189.691 M218.040 188.466 C 221.572 189.675,222.296 192.012,222.362 202.409 C 222.391 206.978,222.583 210.395,222.838 210.871 C 223.421 211.961,223.432 211.957,219.317 212.086 C 214.942 212.223,214.904 212.194,215.770 209.439 C 216.325 207.674,216.432 206.055,216.328 200.930 C 216.169 193.086,215.582 191.855,211.772 191.379 C 209.272 191.067,209.074 190.695,210.900 189.743 C 213.964 188.146,216.029 187.777,218.040 188.466 M337.078 188.640 C 341.375 189.889,342.400 192.257,342.400 200.940 C 342.400 206.900,342.903 209.429,344.163 209.803 C 344.403 209.875,345.111 210.046,345.735 210.183 C 348.427 210.776,343.057 213.110,340.224 212.578 C 336.578 211.894,335.987 209.498,336.374 196.969 C 336.516 192.393,335.084 189.264,332.400 188.282 C 330.935 187.747,335.102 188.066,337.078 188.640 M84.102 188.900 C 84.672 189.335,84.772 190.708,84.878 199.481 C 84.968 206.874,85.133 209.694,85.500 210.061 C 87.138 211.697,85.484 212.515,81.076 212.249 C 77.902 212.058,77.715 211.944,78.335 210.583 C 79.632 207.737,78.798 192.478,77.284 191.360 C 76.304 190.635,76.935 190.180,80.200 189.252 C 83.645 188.273,83.320 188.303,84.102 188.900 M282.453 189.680 C 284.616 190.799,286.483 194.476,286.321 197.295 L 286.200 199.399 283.914 199.500 C 281.220 199.619,281.023 199.398,280.597 195.800 C 280.300 193.287,279.218 190.306,278.426 189.816 C 278.073 189.598,278.073 189.394,278.426 188.968 C 278.966 188.318,280.265 188.547,282.453 189.680 M129.734 189.068 C 129.881 189.215,129.759 189.620,129.463 189.968 C 126.877 193.003,126.843 207.154,129.413 211.076 C 130.136 212.179,128.940 212.390,126.919 211.516 C 118.944 208.066,118.584 193.847,126.368 189.792 C 128.245 188.814,129.262 188.595,129.734 189.068 M139.489 189.700 C 145.698 193.257,147.167 202.547,142.493 208.700 C 141.949 209.415,141.265 210.000,140.972 210.000 C 140.679 210.000,140.296 210.246,140.120 210.546 C 138.755 212.875,135.760 212.688,136.919 210.346 C 138.533 207.083,138.554 194.136,136.951 190.911 C 135.752 188.500,136.648 188.072,139.489 189.700 M159.600 189.069 C 159.600 189.216,159.329 189.637,158.997 190.003 C 157.120 192.077,157.162 207.870,159.052 210.589 C 159.919 211.837,159.709 212.109,158.100 211.817 C 149.197 210.200,147.786 193.836,156.200 189.773 C 158.154 188.830,159.600 188.530,159.600 189.069 M169.173 189.586 C 175.894 193.015,177.076 206.399,170.981 210.067 C 166.598 212.704,164.807 212.915,166.585 210.584 C 168.581 207.967,168.392 191.280,166.349 189.849 C 164.637 188.650,166.921 188.437,169.173 189.586 M272.530 189.063 C 272.675 189.208,272.582 189.581,272.324 189.892 C 269.938 192.766,269.187 200.490,270.944 204.074 C 273.067 208.406,278.235 210.165,282.994 208.177 C 286.088 206.884,284.696 209.372,281.230 211.330 C 273.839 215.506,264.721 210.536,263.788 201.822 C 263.298 197.254,265.991 190.953,268.748 190.215 C 269.270 190.075,269.958 189.699,270.277 189.380 C 270.881 188.776,272.075 188.608,272.530 189.063 M300.117 189.051 C 300.255 189.189,300.105 189.810,299.784 190.431 C 298.823 192.289,298.974 199.605,300.000 200.909 C 301.203 202.438,301.004 202.800,298.964 202.800 C 294.911 202.800,292.236 196.270,294.622 192.199 C 295.918 189.987,299.183 188.117,300.117 189.051 M309.538 189.369 C 310.122 189.681,310.915 190.036,311.300 190.156 C 311.685 190.276,312.000 190.706,312.000 191.111 C 312.000 191.516,312.264 192.196,312.587 192.624 C 314.726 195.451,311.729 201.650,307.739 202.651 C 306.240 203.027,305.743 202.257,306.801 201.199 C 307.979 200.021,307.901 191.437,306.700 190.110 C 305.415 188.691,307.336 188.189,309.538 189.369 M324.784 191.427 C 322.400 195.283,326.125 199.532,329.304 196.584 C 330.870 195.132,330.826 192.964,329.197 191.259 C 327.494 189.478,325.952 189.537,324.784 191.427 M329.571 193.884 C 329.601 195.216,328.366 196.800,327.298 196.800 C 324.676 196.800,324.011 192.668,326.356 190.939 C 327.344 190.211,329.534 192.216,329.571 193.884 M44.667 200.267 C 44.520 200.413,44.400 202.566,44.400 205.050 C 44.400 210.174,44.963 211.243,47.960 211.803 C 48.752 211.951,49.580 212.214,49.800 212.388 C 50.020 212.562,51.762 212.831,53.671 212.986 C 57.793 213.320,58.220 212.542,54.876 210.791 C 51.826 209.193,49.558 206.775,47.800 203.245 C 46.322 200.278,45.468 199.466,44.667 200.267 M331.200 201.252 C 331.200 201.474,330.660 202.441,330.000 203.400 C 328.151 206.087,329.167 209.988,331.720 210.006 C 333.370 210.018,333.817 210.639,332.702 211.370 C 326.821 215.224,319.833 209.738,323.683 204.291 C 324.598 202.997,327.134 201.600,328.568 201.600 C 329.118 201.600,329.801 201.349,330.084 201.042 C 330.625 200.456,331.200 200.564,331.200 201.252 M46.149 201.739 C 46.882 204.662,52.630 211.548,54.400 211.625 C 54.732 211.639,54.586 211.817,54.075 212.022 C 53.505 212.250,52.583 212.249,51.675 212.019 C 44.972 210.321,45.200 210.563,45.200 205.154 C 45.200 201.073,45.611 199.595,46.149 201.739 M256.146 202.500 C 255.952 202.775,255.444 203.689,255.017 204.532 C 254.589 205.374,253.691 206.508,253.020 207.051 C 252.349 207.595,251.440 208.355,251.000 208.740 C 250.560 209.126,249.030 209.765,247.600 210.161 C 243.454 211.309,243.038 211.522,243.608 212.210 C 244.300 213.043,257.268 213.082,257.956 212.253 C 258.333 211.799,258.654 205.593,258.449 202.700 C 258.391 201.875,256.690 201.727,256.146 202.500 M257.502 207.632 C 257.639 212.137,257.571 212.213,253.515 212.142 C 245.874 212.008,244.887 211.933,246.400 211.601 C 249.242 210.978,254.019 207.798,255.600 205.475 C 257.021 203.388,257.386 203.803,257.502 207.632 M296.076 205.497 C 296.249 207.591,297.526 208.132,302.182 208.088 C 308.748 208.025,312.373 208.693,313.935 210.255 L 315.280 211.600 315.140 215.168 C 315.018 218.288,314.878 218.866,314.030 219.768 C 312.714 221.169,312.572 221.085,312.737 219.009 C 312.861 217.452,312.721 217.060,311.670 216.009 L 310.462 214.800 304.531 214.788 C 296.920 214.772,294.728 214.063,293.282 211.151 L 292.364 209.302 293.158 207.213 C 293.867 205.349,294.889 204.049,295.676 204.013 C 295.828 204.006,296.008 204.674,296.076 205.497 M292.297 215.234 C 290.128 216.495,289.117 221.803,290.646 223.902 C 292.909 227.006,302.111 227.992,306.297 225.578 C 308.962 224.042,308.618 223.815,303.879 223.990 C 298.525 224.188,294.156 221.191,293.922 217.158 C 293.794 214.958,293.458 214.560,292.297 215.234 M293.268 217.300 C 293.306 217.795,293.357 218.482,293.382 218.828 C 293.555 221.215,298.104 224.368,302.300 225.010 C 305.373 225.480,304.078 226.000,299.833 226.000 C 291.860 226.000,289.065 223.327,291.342 217.877 C 292.029 216.233,293.161 215.893,293.268 217.300 " stroke="none" fill="#c7eac7" fill-rule="evenodd"></path><path id="path3" d="M25.413 157.579 C 25.006 158.237,25.168 242.128,25.576 242.536 C 25.783 242.743,26.909 242.969,28.076 243.037 C 30.141 243.157,30.152 243.152,28.492 242.852 C 27.553 242.683,26.606 242.366,26.388 242.148 C 26.133 241.893,25.958 226.843,25.896 199.862 L 25.800 157.971 27.000 157.622 L 28.200 157.272 26.924 157.236 C 26.222 157.216,25.542 157.371,25.413 157.579 M201.600 157.599 L 375.000 157.800 375.257 159.400 L 375.514 161.000 375.457 159.200 L 375.400 157.400 201.800 157.399 L 28.200 157.398 201.600 157.599 M203.603 174.380 C 203.275 174.592,202.058 174.885,200.898 175.030 C 198.276 175.358,198.186 175.508,199.506 177.365 C 200.512 178.778,200.590 179.213,200.820 184.733 L 201.065 190.600 201.132 184.780 C 201.170 181.579,201.045 178.789,200.855 178.580 C 200.665 178.371,200.322 177.638,200.094 176.952 L 199.678 175.704 202.464 175.244 C 206.176 174.631,205.944 174.004,205.897 184.505 C 205.812 203.353,206.054 212.000,206.665 212.000 C 207.488 212.000,207.773 210.890,207.145 210.134 C 206.710 209.611,206.560 205.909,206.400 191.839 L 206.200 174.200 205.200 174.096 C 204.650 174.039,203.932 174.167,203.603 174.380 M354.955 174.405 C 354.732 174.628,353.821 174.872,352.930 174.947 C 350.480 175.155,350.223 175.474,351.390 176.861 L 352.400 178.061 352.400 194.007 C 352.400 204.206,352.256 210.042,352.000 210.200 C 351.320 210.620,351.545 211.997,352.300 212.040 C 352.970 212.077,356.452 212.067,358.257 212.022 C 359.242 211.997,359.805 210.929,359.211 210.214 C 358.960 209.911,358.768 203.585,358.700 193.364 L 358.591 177.000 358.495 194.057 C 358.388 213.287,358.724 211.600,355.001 211.600 C 352.611 211.600,352.364 211.323,352.856 209.200 C 353.594 206.018,353.258 178.302,352.465 177.000 L 351.734 175.800 353.767 175.277 C 354.885 174.990,356.430 174.605,357.200 174.423 L 358.600 174.092 356.980 174.046 C 356.089 174.021,355.178 174.182,354.955 174.405 M49.800 176.809 C 44.538 179.545,43.184 185.069,46.657 189.624 C 48.111 191.531,51.345 193.889,59.171 198.750 C 64.417 202.008,66.413 207.139,63.778 210.593 C 62.533 212.226,63.194 212.592,65.793 211.710 C 72.459 209.449,73.896 201.400,68.534 196.357 C 66.956 194.874,60.985 190.400,60.582 190.400 C 60.089 190.400,55.709 187.204,54.252 185.781 C 51.218 182.817,50.742 179.118,53.165 177.333 C 54.700 176.201,51.828 175.754,49.800 176.809 M63.900 176.267 C 62.911 176.538,63.029 176.997,64.300 177.820 C 66.217 179.061,67.210 180.146,68.234 182.115 C 69.357 184.277,70.025 184.262,69.947 182.076 L 69.895 180.600 69.635 182.000 L 69.376 183.400 69.082 182.307 C 68.733 181.007,66.677 178.616,65.000 177.559 L 63.800 176.803 65.468 176.801 C 67.754 176.799,69.519 177.873,69.733 179.397 C 69.848 180.214,69.886 180.088,69.851 179.003 C 69.811 177.745,69.630 177.375,69.000 177.257 C 68.560 177.175,68.110 176.970,68.000 176.803 C 67.739 176.405,64.800 176.021,63.900 176.267 M230.157 176.568 C 230.037 176.880,230.268 177.637,230.670 178.249 C 231.331 179.257,231.420 180.696,231.610 193.382 L 231.820 207.400 231.908 193.200 C 231.979 181.686,231.889 178.797,231.436 177.928 C 230.708 176.534,231.055 176.398,235.333 176.406 C 239.202 176.413,240.108 176.776,239.084 177.907 C 238.463 178.593,238.400 180.104,238.400 194.242 C 238.400 212.746,238.677 211.600,234.201 211.600 C 231.269 211.600,230.271 211.169,231.155 210.285 C 231.400 210.040,231.573 209.291,231.540 208.620 C 231.483 207.453,231.473 207.446,231.316 208.471 C 231.226 209.060,230.893 209.757,230.576 210.020 C 229.857 210.617,229.826 211.848,230.524 212.115 C 231.152 212.357,238.113 212.020,238.399 211.734 C 238.510 211.624,238.655 204.308,238.722 195.477 L 238.843 179.419 239.844 178.107 C 240.394 177.386,240.734 176.616,240.599 176.398 C 240.183 175.725,230.419 175.884,230.157 176.568 M51.829 177.429 C 51.019 178.238,50.979 182.419,51.767 183.920 C 52.772 185.833,59.779 191.287,64.593 193.902 C 72.464 198.178,73.259 209.867,65.761 211.084 C 64.455 211.296,63.881 210.768,64.800 210.200 C 65.020 210.064,65.200 208.585,65.200 206.913 C 65.200 203.080,63.660 200.789,59.197 197.981 C 50.372 192.428,47.092 189.950,46.627 188.486 C 46.485 188.038,46.106 187.454,45.785 187.187 C 43.943 185.659,45.814 180.228,48.937 178.036 C 50.782 176.741,52.977 176.280,51.829 177.429 M183.680 181.195 C 182.954 181.367,182.245 181.622,182.105 181.762 C 181.103 182.763,181.439 207.302,182.486 209.673 C 183.759 212.555,188.352 213.520,191.926 211.657 C 193.754 210.704,193.994 209.720,192.350 209.917 C 190.953 210.085,188.754 208.448,188.163 206.800 C 187.806 205.804,187.652 201.966,187.630 193.490 L 187.600 181.580 186.574 181.190 C 185.437 180.758,185.524 180.758,183.680 181.195 M187.000 194.217 C 187.000 205.777,187.053 206.716,187.767 207.817 C 188.946 209.637,190.005 210.399,191.361 210.407 L 192.600 210.413 191.301 211.245 C 186.920 214.051,182.783 211.406,182.566 205.659 C 182.302 198.701,182.329 184.559,182.609 183.081 L 182.896 181.562 184.948 181.681 L 187.000 181.800 187.000 194.217 M314.057 187.956 C 312.587 188.888,315.132 192.489,317.143 192.322 C 318.561 192.203,318.603 192.152,318.727 190.415 C 318.902 187.959,316.254 186.564,314.057 187.956 M91.482 188.601 C 88.232 189.821,87.306 191.657,90.017 191.506 C 93.185 191.330,93.644 192.589,93.729 201.683 C 93.780 207.167,93.663 209.501,93.313 209.960 C 92.588 210.912,92.691 212.000,93.505 212.000 C 94.491 212.000,94.704 194.791,93.737 193.273 C 92.653 191.573,91.611 190.800,90.400 190.800 L 89.200 190.800 90.032 189.968 C 91.142 188.858,94.597 188.514,96.000 189.374 C 96.550 189.711,97.281 190.092,97.624 190.220 C 98.779 190.652,99.135 193.512,98.961 200.955 C 98.865 205.066,98.952 208.302,99.167 208.560 C 100.434 210.087,99.854 211.394,97.800 211.637 L 95.800 211.874 98.300 211.937 C 100.911 212.003,101.599 211.358,100.300 210.061 C 99.943 209.704,99.743 207.018,99.600 200.661 C 99.429 193.061,99.297 191.604,98.696 190.689 C 97.322 188.596,94.031 187.644,91.482 188.601 M107.328 188.432 C 105.410 188.685,102.800 190.034,102.800 190.771 C 102.800 190.945,103.745 191.248,104.900 191.444 C 108.377 192.034,108.874 193.469,108.720 202.481 C 108.636 207.473,108.452 209.709,108.100 210.061 C 106.801 211.358,107.489 212.003,110.100 211.937 L 112.600 211.874 110.600 211.637 C 108.865 211.431,108.623 211.294,108.770 210.600 C 108.864 210.160,109.007 206.310,109.087 202.045 C 109.260 192.868,108.849 191.566,105.613 191.048 C 103.748 190.750,103.780 190.385,105.754 189.449 C 109.097 187.862,112.823 189.331,113.623 192.549 C 114.666 196.740,114.588 210.875,113.517 211.750 L 112.600 212.501 114.000 212.204 C 115.798 211.822,115.770 211.863,115.246 210.361 C 114.983 209.605,114.793 206.035,114.782 201.640 C 114.755 189.926,113.455 187.623,107.328 188.432 M213.800 188.560 C 209.433 189.940,208.648 190.978,211.700 191.333 C 213.884 191.587,215.164 192.591,216.026 194.726 C 216.640 196.246,216.457 207.544,215.788 209.400 C 214.838 212.039,214.787 212.000,219.200 212.000 C 221.400 212.000,223.200 211.898,223.200 211.774 C 223.200 211.649,223.022 211.216,222.805 210.810 C 222.588 210.405,222.389 206.624,222.362 202.409 C 222.282 189.801,220.253 186.519,213.800 188.560 M317.626 188.414 C 319.475 189.403,318.202 192.513,316.254 191.766 C 315.452 191.457,314.228 189.002,314.588 188.420 C 314.920 187.882,316.626 187.879,317.626 188.414 M332.400 188.282 C 335.084 189.264,336.516 192.393,336.374 196.969 C 335.987 209.498,336.578 211.894,340.224 212.578 C 343.057 213.110,348.427 210.776,345.735 210.183 C 345.111 210.046,344.403 209.875,344.163 209.803 C 342.903 209.429,342.400 206.900,342.400 200.940 C 342.400 192.257,341.375 189.889,337.078 188.640 C 335.102 188.066,330.935 187.747,332.400 188.282 M80.200 189.252 C 76.756 190.231,76.385 190.554,77.504 191.596 C 77.976 192.037,78.471 192.983,78.603 193.698 C 78.939 195.518,78.631 210.005,78.233 211.100 C 77.915 211.978,77.970 211.998,80.453 211.928 C 82.711 211.864,82.785 211.839,81.100 211.706 L 79.200 211.556 79.198 202.278 C 79.196 194.780,79.079 192.777,78.590 191.840 C 78.258 191.203,78.034 190.656,78.093 190.626 C 78.824 190.251,82.368 189.197,82.892 189.198 C 83.880 189.201,83.963 189.945,84.095 200.000 C 84.180 206.467,84.359 209.260,84.734 209.926 C 85.139 210.645,85.149 210.979,84.779 211.426 C 84.390 211.894,84.459 212.000,85.151 212.000 C 86.025 212.000,86.327 210.929,85.663 210.180 C 84.853 209.265,84.439 204.893,84.492 197.800 C 84.531 192.479,84.402 189.930,84.060 189.300 C 83.487 188.244,83.740 188.247,80.200 189.252 M278.426 188.968 C 278.106 189.355,278.092 189.610,278.383 189.790 C 279.235 190.316,280.085 192.577,280.537 195.519 C 280.792 197.177,281.186 198.596,281.414 198.672 C 281.884 198.828,281.212 193.076,280.700 192.566 C 280.535 192.401,280.400 191.944,280.400 191.549 C 280.400 191.154,280.006 190.464,279.525 190.016 C 278.367 188.938,279.266 188.920,281.649 189.975 C 284.847 191.390,287.712 198.865,284.907 198.476 C 284.416 198.408,283.696 198.537,283.307 198.764 C 282.726 199.103,282.852 199.178,284.020 199.188 C 286.794 199.212,287.239 196.687,285.153 192.772 C 283.545 189.756,279.617 187.534,278.426 188.968 M126.368 189.792 C 117.759 194.277,119.838 212.000,128.973 212.000 L 129.908 212.000 128.786 209.838 C 127.119 206.625,126.998 194.451,128.604 191.432 C 130.108 188.602,129.504 188.158,126.368 189.792 M136.318 189.016 C 136.199 189.134,136.439 189.892,136.851 190.700 C 137.263 191.508,137.600 192.401,137.600 192.685 C 137.600 192.968,137.735 193.200,137.900 193.200 C 138.374 193.200,138.151 207.251,137.656 208.600 C 137.414 209.260,136.947 210.302,136.617 210.916 C 135.603 212.808,139.005 212.448,140.120 210.546 C 140.296 210.246,140.635 210.000,140.873 210.000 C 143.984 210.000,146.303 200.428,144.377 195.541 C 142.826 191.608,137.798 187.536,136.318 189.016 M156.200 189.773 C 153.106 191.267,150.400 196.050,150.400 200.025 C 150.400 201.488,151.191 199.951,151.390 198.100 C 151.527 196.835,151.810 195.530,152.020 195.200 C 152.230 194.870,152.564 194.240,152.762 193.800 C 153.285 192.640,155.667 190.488,156.600 190.333 C 157.502 190.183,157.474 189.709,157.010 197.200 C 156.707 202.080,157.251 209.297,157.988 210.185 C 158.825 211.194,157.142 211.287,155.766 210.307 C 154.150 209.158,151.600 205.425,151.600 204.210 C 151.600 202.634,151.116 200.800,150.700 200.800 C 150.455 200.800,150.414 201.303,150.595 202.100 C 150.757 202.815,151.004 203.940,151.145 204.600 C 151.849 207.912,155.085 211.269,158.100 211.817 C 159.715 212.110,159.921 211.836,159.037 210.574 C 157.457 208.319,157.061 192.144,158.544 190.436 C 159.942 188.824,158.821 188.508,156.200 189.773 M166.565 189.900 C 168.609 193.587,168.679 207.773,166.666 210.496 C 164.928 212.847,166.646 212.676,170.981 210.067 C 175.646 207.259,176.325 196.927,172.164 192.066 C 169.717 189.207,165.215 187.466,166.565 189.900 M218.100 189.057 C 218.925 189.193,219.600 189.529,219.600 189.803 C 219.600 190.078,219.850 190.510,220.156 190.763 C 221.757 192.092,222.850 210.910,221.349 211.319 C 218.133 212.197,215.782 211.425,216.435 209.707 C 216.636 209.180,216.800 205.561,216.800 201.667 C 216.800 192.693,215.892 190.839,211.474 190.784 L 210.200 190.769 211.600 190.105 C 214.410 188.774,215.412 188.613,218.100 189.057 M270.277 189.380 C 269.958 189.699,269.270 190.075,268.748 190.215 C 265.991 190.953,263.298 197.254,263.788 201.822 C 264.721 210.536,273.839 215.506,281.230 211.330 C 284.696 209.372,286.088 206.884,282.994 208.177 C 278.235 210.165,273.067 208.406,270.944 204.074 C 269.187 200.490,269.938 192.766,272.324 189.892 C 273.234 188.795,271.337 188.320,270.277 189.380 M297.122 189.655 C 291.958 192.453,293.233 202.800,298.741 202.800 C 300.722 202.800,301.149 202.223,300.042 201.045 C 298.946 199.878,298.756 191.187,299.804 190.139 C 301.212 188.731,299.423 188.408,297.122 189.655 M306.000 189.069 C 306.000 189.216,306.315 189.685,306.700 190.110 C 307.901 191.437,307.979 200.021,306.801 201.199 C 305.743 202.257,306.240 203.027,307.739 202.651 C 311.729 201.650,314.726 195.451,312.587 192.624 C 312.264 192.196,312.000 191.516,312.000 191.111 C 312.000 190.706,311.685 190.276,311.300 190.156 C 310.915 190.036,310.122 189.681,309.538 189.369 C 308.457 188.789,306.000 188.581,306.000 189.069 M339.493 190.693 C 341.379 192.724,341.716 194.242,341.971 201.859 C 342.220 209.316,342.562 210.400,344.662 210.400 C 346.107 210.400,345.774 211.021,344.054 211.537 C 340.867 212.491,339.342 212.188,337.999 210.335 L 336.793 208.670 336.845 200.528 C 336.897 192.399,336.896 192.384,335.862 190.822 C 334.744 189.132,334.930 188.846,336.964 189.130 C 337.711 189.234,338.711 189.852,339.493 190.693 M138.703 189.996 C 143.617 192.557,146.402 200.214,144.030 204.640 C 143.573 205.492,143.200 206.416,143.200 206.694 C 143.200 206.972,143.065 207.201,142.900 207.201 C 142.735 207.202,142.259 207.711,141.843 208.333 C 139.798 211.385,136.961 211.904,138.173 209.004 C 139.657 205.451,138.776 190.811,137.000 189.506 C 136.215 188.930,137.201 189.213,138.703 189.996 M308.800 189.800 C 309.074 190.130,309.681 190.401,310.149 190.401 C 313.332 190.407,312.997 198.850,309.731 200.920 L 308.200 201.890 308.000 195.930 C 307.842 191.224,307.674 189.890,307.200 189.591 C 306.712 189.283,306.759 189.211,307.451 189.206 C 307.919 189.203,308.526 189.470,308.800 189.800 M171.921 192.844 C 172.852 193.988,173.600 195.335,173.600 195.867 C 173.600 196.394,173.861 197.449,174.179 198.212 C 174.749 199.575,174.567 202.427,173.771 204.600 C 173.165 206.255,170.994 209.600,170.526 209.600 C 170.259 209.600,169.896 209.846,169.720 210.148 C 169.544 210.449,168.991 210.822,168.490 210.978 C 167.483 211.290,167.476 210.435,168.449 205.800 C 168.934 203.485,168.738 197.026,168.061 193.067 C 167.351 188.915,168.664 188.840,171.921 192.844 M271.186 190.524 C 271.179 190.786,270.825 191.720,270.400 192.600 C 269.236 195.010,269.261 202.368,270.440 204.606 C 272.571 208.650,275.005 209.779,280.697 209.364 C 283.618 209.151,283.741 209.174,282.800 209.758 C 275.652 214.194,267.827 211.902,264.827 204.494 C 263.060 200.130,266.514 190.400,269.831 190.400 C 270.144 190.400,270.400 190.209,270.400 189.976 C 270.400 189.743,270.580 189.664,270.800 189.800 C 271.020 189.936,271.194 190.262,271.186 190.524 M128.400 190.354 C 128.400 190.549,128.131 191.224,127.802 191.854 C 126.957 193.475,126.955 207.322,127.800 208.800 C 129.194 211.239,127.735 211.908,125.263 209.963 C 124.237 209.157,124.053 208.897,122.500 206.070 C 121.160 203.631,121.191 197.578,122.558 194.887 C 124.047 191.956,128.400 188.578,128.400 190.354 M298.600 195.428 C 298.600 200.206,298.685 200.903,299.308 201.252 C 300.134 201.715,299.865 202.400,298.858 202.400 C 298.060 202.400,295.715 200.000,294.693 198.138 C 293.638 196.217,293.817 194.484,295.295 192.319 C 296.470 190.597,296.995 190.186,298.200 190.046 C 298.449 190.017,298.600 192.045,298.600 195.428 M326.365 190.924 C 324.014 192.688,324.667 196.800,327.298 196.800 C 328.388 196.800,329.600 195.213,329.600 193.784 C 329.600 193.023,329.427 192.400,329.216 192.400 C 329.005 192.400,328.420 191.961,327.916 191.424 C 327.169 190.628,326.883 190.536,326.365 190.924 M200.765 199.800 C 200.577 207.172,200.397 209.298,199.860 210.500 L 199.189 212.000 201.495 211.930 C 203.489 211.870,203.571 211.840,202.100 211.707 C 200.218 211.538,200.148 211.372,200.815 208.677 C 201.056 207.706,201.182 203.549,201.115 198.800 L 201.000 190.600 200.765 199.800 M327.969 192.567 C 329.859 194.578,327.954 197.168,325.931 195.338 C 325.022 194.515,324.994 193.291,325.862 192.331 C 326.715 191.389,326.879 191.407,327.969 192.567 M330.084 201.042 C 329.801 201.349,329.118 201.600,328.568 201.600 C 327.134 201.600,324.598 202.997,323.683 204.291 C 319.833 209.738,326.821 215.224,332.702 211.370 C 333.817 210.639,333.370 210.018,331.720 210.006 C 329.167 209.988,328.151 206.087,330.000 203.400 C 330.660 202.441,331.200 201.474,331.200 201.252 C 331.200 200.564,330.625 200.456,330.084 201.042 M45.200 205.154 C 45.200 210.024,45.437 210.430,48.777 211.282 C 49.559 211.482,50.904 211.823,51.764 212.039 C 54.247 212.664,54.227 211.917,51.701 209.720 C 49.492 207.799,46.639 203.691,46.144 201.718 C 45.611 199.594,45.200 201.088,45.200 205.154 M329.600 202.829 C 329.600 203.064,329.330 203.527,329.000 203.857 C 328.454 204.403,328.176 206.101,328.389 207.584 C 328.571 208.847,330.079 210.202,331.531 210.409 L 333.000 210.618 331.720 211.309 C 327.150 213.776,321.438 209.837,323.559 205.681 C 324.635 203.572,329.600 201.228,329.600 202.829 M47.300 205.492 C 47.905 206.423,48.400 207.323,48.401 207.492 C 48.401 207.661,49.121 208.477,50.001 209.305 C 50.880 210.133,51.600 210.913,51.600 211.040 C 51.600 211.464,48.208 210.720,47.569 210.156 C 47.221 209.850,46.636 209.600,46.269 209.600 C 45.693 209.600,45.604 209.115,45.628 206.100 C 45.644 204.175,45.779 202.870,45.928 203.200 C 46.078 203.530,46.695 204.561,47.300 205.492 M255.600 205.475 C 254.448 207.168,251.636 209.290,248.430 210.887 L 246.200 211.997 251.692 211.998 C 258.079 212.000,257.724 212.291,257.519 207.227 C 257.381 203.796,256.987 203.437,255.600 205.475 M294.676 204.574 C 294.278 204.876,293.595 206.063,293.158 207.213 L 292.364 209.302 293.282 211.151 C 294.728 214.063,296.920 214.772,304.531 214.788 L 310.463 214.800 312.131 216.486 C 313.846 218.218,313.988 218.885,312.902 220.100 C 311.902 221.219,312.959 220.908,314.030 219.768 C 314.878 218.866,315.018 218.288,315.140 215.168 L 315.280 211.600 313.923 210.243 C 312.457 208.777,311.947 208.694,301.800 208.278 C 297.550 208.103,296.239 207.466,296.076 205.497 C 295.940 203.865,295.765 203.749,294.676 204.574 M295.203 206.607 C 295.796 208.167,297.248 208.501,304.961 208.851 L 312.121 209.176 313.461 210.638 C 314.679 211.968,314.800 212.325,314.800 214.584 C 314.800 217.821,314.583 217.946,312.509 215.909 L 310.769 214.200 304.084 213.981 C 295.523 213.700,292.296 212.034,293.637 208.586 C 293.805 208.154,294.049 207.305,294.179 206.700 C 294.472 205.336,294.711 205.315,295.203 206.607 M257.200 207.956 C 257.200 211.020,256.441 211.669,253.032 211.521 C 250.816 211.424,248.356 210.400,250.339 210.400 C 250.995 210.400,253.577 208.704,255.056 207.300 C 256.892 205.559,257.200 205.653,257.200 207.956 M291.424 217.679 C 291.128 218.383,291.001 219.238,291.143 219.579 C 291.309 219.980,291.444 219.740,291.525 218.900 C 291.683 217.269,292.223 217.217,292.540 218.802 C 292.830 220.252,295.969 223.480,298.177 224.600 L 299.754 225.400 297.821 225.524 C 296.758 225.593,295.698 225.458,295.464 225.224 C 295.231 224.991,294.740 224.800,294.374 224.800 C 293.278 224.800,291.600 223.224,291.600 222.195 C 291.600 221.674,291.420 221.136,291.200 221.000 C 290.553 220.600,290.741 222.537,291.447 223.545 C 292.636 225.243,295.222 226.000,299.833 226.000 C 304.168 226.000,305.422 225.442,302.100 224.991 C 298.235 224.467,293.556 221.153,293.383 218.817 C 293.357 218.478,293.306 217.795,293.268 217.300 C 293.167 215.968,292.046 216.199,291.424 217.679 M375.277 239.467 C 375.227 241.323,375.024 242.404,374.700 242.535 C 374.308 242.693,374.311 242.744,374.713 242.768 C 375.477 242.816,375.657 241.991,375.498 239.158 L 375.354 236.600 375.277 239.467 M371.305 243.087 C 371.914 243.179,372.814 243.177,373.305 243.082 C 373.797 242.987,373.300 242.911,372.200 242.914 C 371.100 242.917,370.697 242.995,371.305 243.087 " stroke="none" fill="#ddeddd" fill-rule="evenodd"></path><path id="path4" d="M70.120 180.800 C 70.120 182.010,70.195 182.505,70.287 181.900 C 70.378 181.295,70.378 180.305,70.287 179.700 C 70.195 179.095,70.120 179.590,70.120 180.800 M200.400 193.600 C 200.400 200.933,200.491 206.843,200.602 206.731 C 200.871 206.462,200.879 180.746,200.610 180.477 C 200.495 180.361,200.400 186.267,200.400 193.600 M187.638 188.600 C 187.649 189.999,187.698 190.083,188.026 189.265 C 188.262 188.675,188.257 188.084,188.012 187.665 C 187.716 187.158,187.627 187.380,187.638 188.600 M84.292 190.913 C 84.538 193.907,84.732 194.155,84.768 191.524 C 84.786 190.272,84.647 189.153,84.460 189.037 C 84.273 188.922,84.197 189.766,84.292 190.913 M318.893 190.000 C 318.893 190.770,318.975 191.085,319.076 190.700 C 319.176 190.315,319.176 189.685,319.076 189.300 C 318.975 188.915,318.893 189.230,318.893 190.000 M84.493 197.600 C 84.493 198.370,84.575 198.685,84.676 198.300 C 84.776 197.915,84.776 197.285,84.676 196.900 C 84.575 196.515,84.493 196.830,84.493 197.600 M168.150 200.600 C 168.151 203.020,168.216 203.958,168.296 202.685 C 168.376 201.412,168.375 199.432,168.294 198.285 C 168.214 197.138,168.149 198.180,168.150 200.600 M285.423 199.033 C 284.774 199.507,284.754 199.600,285.300 199.600 C 285.659 199.600,286.071 199.408,286.216 199.173 C 286.640 198.487,286.261 198.420,285.423 199.033 M281.400 199.200 C 281.536 199.420,282.222 199.587,282.924 199.572 C 284.000 199.548,284.074 199.490,283.400 199.200 C 282.284 198.720,281.104 198.720,281.400 199.200 M84.537 203.400 C 84.539 205.160,84.609 205.830,84.693 204.889 C 84.778 203.949,84.777 202.509,84.691 201.689 C 84.605 200.870,84.536 201.640,84.537 203.400 M300.900 208.276 C 301.285 208.376,301.915 208.376,302.300 208.276 C 302.685 208.175,302.370 208.093,301.600 208.093 C 300.830 208.093,300.515 208.175,300.900 208.276 M305.100 208.282 C 305.595 208.378,306.405 208.378,306.900 208.282 C 307.395 208.187,306.990 208.109,306.000 208.109 C 305.010 208.109,304.605 208.187,305.100 208.282 M82.300 212.282 C 82.795 212.378,83.605 212.378,84.100 212.282 C 84.595 212.187,84.190 212.109,83.200 212.109 C 82.210 212.109,81.805 212.187,82.300 212.282 M94.705 212.283 C 95.202 212.379,95.922 212.375,96.305 212.275 C 96.687 212.175,96.280 212.096,95.400 212.101 C 94.520 212.105,94.207 212.187,94.705 212.283 M203.900 212.282 C 204.395 212.378,205.205 212.378,205.700 212.282 C 206.195 212.187,205.790 212.109,204.800 212.109 C 203.810 212.109,203.405 212.187,203.900 212.282 M216.900 212.276 C 217.285 212.376,217.915 212.376,218.300 212.276 C 218.685 212.175,218.370 212.093,217.600 212.093 C 216.830 212.093,216.515 212.175,216.900 212.276 M235.300 212.276 C 235.685 212.376,236.315 212.376,236.700 212.276 C 237.085 212.175,236.770 212.093,236.000 212.093 C 235.230 212.093,234.915 212.175,235.300 212.276 M254.100 212.276 C 254.485 212.376,255.115 212.376,255.500 212.276 C 255.885 212.175,255.570 212.093,254.800 212.093 C 254.030 212.093,253.715 212.175,254.100 212.276 M354.300 212.282 C 354.795 212.378,355.605 212.378,356.100 212.282 C 356.595 212.187,356.190 212.109,355.200 212.109 C 354.210 212.109,353.805 212.187,354.300 212.282 M312.800 218.847 C 312.800 219.652,312.942 220.013,313.167 219.780 C 313.760 219.165,313.841 217.897,313.300 217.708 C 312.966 217.591,312.800 217.969,312.800 218.847 M290.688 219.733 C 290.530 220.136,290.411 220.856,290.425 221.333 C 290.449 222.156,290.471 222.150,290.840 221.225 C 291.054 220.689,291.173 219.969,291.103 219.625 C 290.999 219.111,290.925 219.130,290.688 219.733 " stroke="none" fill="#dde4dd" fill-rule="evenodd"></path></g></svg>